<svg xmlns="http://www.w3.org/2000/svg" viewBox="0 0 512 512" width="512" height="512">
  <defs><linearGradient id="gC" x1="0" y1="1" x2="1" y2="0"><stop offset="0" stop-color="#8F6E3A"/><stop offset="0.55" stop-color="#B8955A"/><stop offset="1" stop-color="#E3CB98"/></linearGradient></defs>
  <rect width="512" height="512" fill="#0A0A0A"/>
  <path d="M256 92 L398 174 L398 338 L256 420 L114 338 L114 174 Z" fill="none" stroke="#B8955A" stroke-width="14" stroke-linejoin="round" opacity=".55"/>
  <path d="M110 214 Q256 150 402 214 Q396 300 330 314 Q286 322 256 282 Q226 322 182 314 Q116 300 110 214 Z" fill="url(#gC)"/>
  <path d="M170 230 Q206 222 232 244 Q214 282 180 276 Q158 262 170 230 Z" fill="#0A0A0A"/>
  <path d="M342 230 Q306 222 280 244 Q298 282 332 276 Q354 262 342 230 Z" fill="#0A0A0A"/>
  <circle cx="204" cy="250" r="8" fill="#EDE9E1"/><circle cx="308" cy="250" r="8" fill="#EDE9E1"/>
  <circle cx="398" cy="338" r="12" fill="#EDE9E1"/><circle cx="114" cy="174" r="12" fill="#8F6E3A"/>
</svg>
